<svg xmlns="http://www.w3.org/2000/svg" width="1600" height="1000" viewBox="0 0 1600 1000" role="img" aria-labelledby="title desc">
<title id="title">Nature Experiences</title>
<desc id="desc">Decorative placeholder image for Maya Nature Resort.</desc>
<defs>
  <linearGradient id="g" x1="0" y1="0" x2="1" y2="1">
    <stop offset="0" stop-color="#0f3d25"/>
    <stop offset="1" stop-color="#092016"/>
  </linearGradient>
  <radialGradient id="sun" cx="75%" cy="25%" r="35%">
    <stop offset="0" stop-color="#d4a62a" stop-opacity=".9"/>
    <stop offset="1" stop-color="#d4a62a" stop-opacity="0"/>
  </radialGradient>
</defs>
<rect width="1600" height="1000" fill="url(#g)"/>
<rect width="1600" height="1000" fill="url(#sun)"/>
<path d="M0 780 C220 660 360 720 560 610 C760 500 900 610 1080 510 C1260 410 1420 470 1600 350 L1600 1000 L0 1000 Z" fill="#164c31"/>
<path d="M0 845 C230 760 380 810 600 700 C820 590 940 720 1150 615 C1360 510 1460 590 1600 520 L1600 1000 L0 1000 Z" fill="#0b2f20"/>
<circle cx="1240" cy="190" r="90" fill="#d4a62a" opacity=".85"/>
<text x="90" y="130" fill="white" font-family="Arial, sans-serif" font-size="60" font-weight="800">Nature Experiences</text>
<text x="92" y="200" fill="#d4a62a" font-family="Arial, sans-serif" font-size="30" font-weight="700">Replace with real resort photo</text>
</svg>